<svg width="471" height="134" viewBox="0 0 471 134" fill="none" xmlns="http://www.w3.org/2000/svg">
<g filter="url(#filter0_d_4_612)">
<g clip-path="url(#clip0_4_612)">
<path d="M202.672 57.3006C206.103 54.1978 210.298 52.6781 215.318 52.6781C220.402 52.6781 224.596 54.1978 228.028 57.3006C231.46 60.34 233.175 64.3292 233.175 69.205C233.175 74.0174 231.46 78.0067 228.028 81.0461C224.66 84.0222 220.466 85.5419 215.382 85.5419C210.298 85.5419 206.103 84.0222 202.672 81.0461C199.304 78.0067 197.588 74.0174 197.588 69.205C197.588 64.3292 199.304 60.34 202.672 57.3006ZM215.382 76.7402C219.385 76.7402 222.563 73.7641 222.563 69.205C222.563 64.5825 219.385 61.4798 215.382 61.4798C211.378 61.4798 208.201 64.5825 208.201 69.205C208.201 73.7641 211.442 76.7402 215.382 76.7402Z" fill="white"/>
<path d="M257.134 52.6781C252.685 52.6781 249.317 54.5144 247.157 58.1237H247.03L247.093 57.3639V56.9206C247.093 54.7044 245.568 53.3746 242.708 53.3746H233.303V62.2396H235.654C236.608 62.2396 236.989 62.6829 236.989 63.5694V84.7821H247.602V70.8514C247.602 69.2683 247.792 67.8752 248.237 66.7355C249.254 63.7593 251.351 62.2396 254.465 62.2396C256.816 62.2396 257.96 63.6327 257.96 66.3555V80.3496C257.96 83.4523 259.295 84.7821 262.408 84.7821H268.509V64.4559C268.509 56.5407 264.696 52.6781 257.134 52.6781Z" fill="white"/>
<path d="M276.071 41.2172V49.7656H284.968V41.2172H276.071ZM281.41 53.3749H271.623V62.2399H273.974C274.864 62.2399 275.309 62.6831 275.309 63.5696V80.3498C275.309 83.4525 276.643 84.7823 279.757 84.7823H285.858V57.8707C285.858 54.7046 284.523 53.3749 281.41 53.3749Z" fill="white"/>
<path d="M294.056 57.3639C297.043 54.2611 301.046 52.6781 306.003 52.6781C310.515 52.6781 314.074 54.0712 316.679 56.9206C319.285 59.7068 320.62 63.3794 320.62 67.8119C320.62 68.5718 320.556 69.6482 320.365 71.1046H300.474C301.237 74.7773 304.224 76.7402 307.846 76.7402C310.452 76.7402 313.375 75.7271 316.552 73.5742L320.492 80.9828C317.124 83.8322 311.913 85.5419 307.02 85.5419C301.682 85.5419 297.488 83.8955 294.374 80.6662C291.26 77.4368 289.735 73.5108 289.735 69.0783C289.608 64.3926 291.069 60.4666 294.056 57.3639ZM310.134 65.0891C310.134 62.4296 308.418 60.4033 305.813 60.4033C303.144 60.4033 301.428 61.9863 300.729 65.0891H310.134Z" fill="white"/>
<path d="M324.369 53.9448H329.897V56.6676C329.897 57.934 329.707 59.0105 329.707 59.0105H329.834C331.804 55.2745 335.744 53.1849 340.256 53.1849C348.644 53.1849 353.855 59.7704 353.855 69.3319C353.855 79.1467 347.945 85.4788 339.811 85.4788C335.871 85.4788 332.312 83.5159 330.215 80.2232H330.088C330.088 80.2232 330.342 81.2996 330.342 82.8827V96.94H324.432V53.9448H324.369ZM338.921 80.4131C343.814 80.4131 347.882 76.4239 347.882 69.4585C347.882 62.7465 344.259 58.4406 339.112 58.4406C334.473 58.4406 330.151 61.7333 330.151 69.5219C330.151 74.9675 333.202 80.4131 338.921 80.4131Z" fill="white"/>
<path d="M373.365 53.1849C382.643 53.1849 390.078 59.9603 390.078 69.2686C390.078 78.6401 382.58 85.4788 373.428 85.4788C364.15 85.4788 356.715 78.6401 356.715 69.2686C356.715 59.9603 364.214 53.1849 373.365 53.1849ZM373.428 80.4131C379.275 80.4131 384.105 75.7907 384.105 69.3319C384.105 62.9364 379.275 58.3773 373.428 58.3773C367.518 58.3773 362.752 62.9364 362.752 69.3319C362.816 75.7907 367.582 80.4131 373.428 80.4131Z" fill="white"/>
<path d="M394.718 41.724H400.819V47.6762H394.718V41.724ZM394.845 53.945H400.755V84.8459H394.845V53.945Z" fill="white"/>
<path d="M407.427 53.9448H413.21V58.124C413.21 59.3904 413.02 60.4669 413.02 60.4669H413.147C414.291 57.8074 418.104 53.1849 424.903 53.1849C432.212 53.1849 435.516 57.1742 435.516 65.026V84.7823H429.606V66.3558C429.606 62.0499 428.78 58.6306 423.76 58.6306C417.722 58.6306 413.401 63.633 413.401 69.9651V84.7823H407.491V53.9448H407.427Z" fill="white"/>
<path d="M443.206 59.074H439.139V54.2616H443.333V45.4599H449.179V54.2616H456.678V59.074H449.179V72.8781C449.179 79.0203 453.501 79.8435 455.788 79.8435C456.233 79.8435 456.615 79.8435 457.186 79.7168V84.9725C456.678 85.0358 456.043 85.1625 455.089 85.1625C451.086 85.1625 443.206 83.896 443.206 73.5746V59.074Z" fill="white"/>
<path d="M194.221 66.1658L192.187 41.2172H179.795C179.795 41.2172 170.326 60.4669 169.564 63.063H169.436L159.523 41.2172H147.131L145.097 62.8731L143.381 84.8456H150.944C154.185 84.8456 155.519 83.4525 155.773 80.0332C155.773 80.0332 157.044 59.897 156.854 56.9842H156.981L157.362 58.3139C157.871 60.0869 164.924 77.247 164.924 77.247H174.203C174.203 77.247 181.257 60.3402 182.146 56.9842H182.273L183.354 80.0332C183.608 83.4525 184.942 84.8456 188.183 84.8456H195.746L194.221 66.1658Z" fill="white"/>
<path fill-rule="evenodd" clip-rule="evenodd" d="M67.0002 116H67.3815C92.0385 116 108.561 110.871 111.993 107.642C115.615 104.412 120.381 87.632 120.381 62.9999C120.381 38.3679 115.615 21.5878 111.993 18.3584C108.561 15.1923 92.0385 10.0633 67.3815 9.99994H67.0002C42.4068 10.0633 25.8205 15.1923 22.3888 18.3584C18.7665 21.5878 14.0004 38.3679 14.0004 62.9999C14.0004 87.6953 18.7665 104.412 22.3888 107.642C25.8205 110.808 42.3432 115.937 67.0002 116ZM89.6862 41.4074L91.7198 66.1661L93.1179 84.656H85.6191C82.4417 84.656 81.1071 83.2629 80.8529 79.8435L79.7726 56.9845H79.6455C78.7558 60.3405 71.7654 77.1207 71.7654 77.1207H62.5508C62.5508 77.1207 55.5605 60.0873 55.0521 58.3143L54.6708 56.9845H54.5437C54.7343 59.8973 53.4633 79.8435 53.4633 79.8435C53.2091 83.2629 51.9382 84.656 48.6972 84.656H41.1984L42.9142 62.8734L44.9478 41.4074H57.2763L67.1264 63.0634H67.2535C68.0796 60.4672 77.4213 41.4074 77.4213 41.4074H89.6862Z" fill="white"/>
</g>
</g>
<defs>
<filter id="filter0_d_4_612" x="0" y="0" width="471" height="134" filterUnits="userSpaceOnUse" color-interpolation-filters="sRGB">
<feFlood flood-opacity="0" result="BackgroundImageFix"/>
<feColorMatrix in="SourceAlpha" type="matrix" values="0 0 0 0 0 0 0 0 0 0 0 0 0 0 0 0 0 0 127 0" result="hardAlpha"/>
<feOffset dy="4"/>
<feGaussianBlur stdDeviation="7"/>
<feColorMatrix type="matrix" values="0 0 0 0 0.0117647 0 0 0 0 0.380392 0 0 0 0 0.941176 0 0 0 0.48 0"/>
<feBlend mode="normal" in2="BackgroundImageFix" result="effect1_dropShadow_4_612"/>
<feBlend mode="normal" in="SourceGraphic" in2="effect1_dropShadow_4_612" result="shape"/>
</filter>
<clipPath id="clip0_4_612">
<rect width="443" height="106" fill="white" transform="translate(14 10)"/>
</clipPath>
</defs>
</svg>
