<svg width="50" height="44" viewBox="0 0 50 44" fill="none" xmlns="http://www.w3.org/2000/svg">
<path d="M30 0C24.6957 0 19.6086 2.06031 15.8579 5.72769C12.1071 9.39507 10 14.3691 10 19.5556C10 24.742 12.1071 29.716 15.8579 33.3834C19.6086 37.0508 24.6957 39.1111 30 39.1111C35.3043 39.1111 40.3914 37.0508 44.1421 33.3834C47.8929 29.716 50 24.742 50 19.5556C50 14.3691 47.8929 9.39507 44.1421 5.72769C40.3914 2.06031 35.3043 0 30 0ZM7.325 9.33778C2.7 13.0533 0 18.6022 0 24.4444C0 29.6309 2.10714 34.6049 5.85786 38.2723C9.60859 41.9397 14.6957 44 20 44C21.6 44 23.175 43.8044 24.7 43.4378C20.3 42.4844 16.25 40.3333 12.925 37.3756C8.05 34.8333 5 29.8467 5 24.4444C5 23.7111 5.075 23.0022 5.175 22.2689C5.075 21.3644 5 20.46 5 19.5556C5 16.0356 5.8 12.54 7.325 9.33778ZM40.225 9.97333L43.75 13.4444L27.5 29.3333L18.025 20.0689L21.575 16.5978L27.5 22.4156" fill="#FFB259"/>
</svg>
