<svg width="49" height="49" viewBox="0 0 49 49" fill="none" xmlns="http://www.w3.org/2000/svg">
<rect y="9" width="37" height="37" rx="8" fill="#0361F0"/>
<rect opacity="0.2" x="13.951" width="37" height="37" rx="8" transform="rotate(22.1514 13.951 0)" fill="#0361F0"/>
<path d="M25.875 26.875H19.125V20.125C19.125 19.8266 19.0065 19.5405 18.7955 19.3295C18.5845 19.1185 18.2984 19 18 19C17.7016 19 17.4155 19.1185 17.2045 19.3295C16.9935 19.5405 16.875 19.8266 16.875 20.125V26.875H10.125C9.82663 26.875 9.54048 26.9935 9.32951 27.2045C9.11853 27.4155 9 27.7016 9 28C9 28.2984 9.11853 28.5845 9.32951 28.7955C9.54048 29.0065 9.82663 29.125 10.125 29.125H16.875V35.875C16.875 36.1734 16.9935 36.4595 17.2045 36.6705C17.4155 36.8815 17.7016 37 18 37C18.2984 37 18.5845 36.8815 18.7955 36.6705C19.0065 36.4595 19.125 36.1734 19.125 35.875V29.125H25.875C26.1734 29.125 26.4595 29.0065 26.6705 28.7955C26.8815 28.5845 27 28.2984 27 28C27 27.7016 26.8815 27.4155 26.6705 27.2045C26.4595 26.9935 26.1734 26.875 25.875 26.875Z" fill="#F9FBFD"/>
</svg>
