<svg width="49" height="49" viewBox="0 0 49 49" fill="none" xmlns="http://www.w3.org/2000/svg">
<rect opacity="0.2" x="13.951" width="37" height="37" rx="8" transform="rotate(22.1514 13.951 0)" fill="#0361F0"/>
<rect x="1" y="9" width="37" height="37" rx="8" fill="#0361F0"/>
<path d="M18 30H20V32H18V30ZM18 22H20V28H18V22ZM19 17C13.47 17 9 21.5 9 27C9 29.6522 10.0536 32.1957 11.9289 34.0711C12.8575 34.9997 13.9599 35.7362 15.1732 36.2388C16.3864 36.7413 17.6868 37 19 37C21.6522 37 24.1957 35.9464 26.0711 34.0711C27.9464 32.1957 29 29.6522 29 27C29 25.6868 28.7413 24.3864 28.2388 23.1732C27.7362 21.9599 26.9997 20.8575 26.0711 19.9289C25.1425 19.0003 24.0401 18.2638 22.8268 17.7612C21.6136 17.2587 20.3132 17 19 17ZM19 35C16.8783 35 14.8434 34.1571 13.3431 32.6569C11.8429 31.1566 11 29.1217 11 27C11 24.8783 11.8429 22.8434 13.3431 21.3431C14.8434 19.8429 16.8783 19 19 19C21.1217 19 23.1566 19.8429 24.6569 21.3431C26.1571 22.8434 27 24.8783 27 27C27 29.1217 26.1571 31.1566 24.6569 32.6569C23.1566 34.1571 21.1217 35 19 35Z" fill="white"/>
</svg>
